<?xml version="1.0"?>
<svg xmlns="http://www.w3.org/2000/svg" xmlns:xlink="http://www.w3.org/1999/xlink" xmlns:svgjs="http://svgjs.com/svgjs" version="1.1" width="512" height="512" x="0" y="0" viewBox="0 0 512 512" style="enable-background:new 0 0 512 512" xml:space="preserve" class=""><g><g xmlns="http://www.w3.org/2000/svg" id="flat"><path d="m347.077 212.923-91.077 91.077-91.077-91.077a44.124 44.124 0 0 1 -12.923-31.2 44.124 44.124 0 0 1 44.123-44.123 44.124 44.124 0 0 1 31.2 12.923l28.677 28.677 28.677-28.677a44.124 44.124 0 0 1 31.2-12.923 44.124 44.124 0 0 1 44.123 44.123 44.124 44.124 0 0 1 -12.923 31.2z" fill="#b81522" data-original="#e82f3e" style="" class=""/><path d="m212 291-12-59v-5h10a30 30 0 0 1 30 30v10a24 24 0 0 1 24 24v24z" fill="#d32b39" data-original="#d32b39" style="" class=""/><path d="m208 488 16-152-24-40v-64h8a24 24 0 0 1 24 24v16a24 24 0 0 1 24 24v8l32-32v216z" fill="#ebb18a" data-original="#fdc9a6" style="" class=""/><path d="m479.458 329.786-60.198 60.614-60.2-60.614a29.164 29.164 0 0 1 -8.542-20.622 29.164 29.164 0 0 1 29.166-29.164 29.164 29.164 0 0 1 20.622 8.542l18.954 18.958 18.954-18.954a29.164 29.164 0 0 1 20.622-8.546 29.164 29.164 0 0 1 29.164 29.164 29.164 29.164 0 0 1 -8.542 20.622z" fill="#b81522" data-original="#e82f3e" style="" class=""/><path d="m370.26 376.992-7-58.592v-5.408h10a30 30 0 0 1 30 30v10a24 24 0 0 1 24 24v24z" fill="#d32b39" data-original="#d32b39" style="" class=""/><path d="m384 488 3.26-65.6-24-40v-64h8a24 24 0 0 1 24 24v16a24 24 0 0 1 24 24v8l32-32.416v130.016z" fill="#ebb18a" data-original="#fdc9a6" style="" class=""/><path d="m152.938 305.786-60.198 60.614-60.2-60.614a29.164 29.164 0 0 1 -8.54-20.622 29.164 29.164 0 0 1 29.164-29.164 29.164 29.164 0 0 1 20.622 8.542l18.954 18.958 18.954-18.954a29.164 29.164 0 0 1 20.622-8.546 29.164 29.164 0 0 1 29.164 29.164 29.164 29.164 0 0 1 -8.542 20.622z" fill="#b81522" data-original="#e82f3e" style="" class=""/><path d="m45.74 352.992-9-58.592v-5.408h10a30 30 0 0 1 30 30v10a24 24 0 0 1 24 24v24z" fill="#d32b39" data-original="#d32b39" style="" class=""/><path d="m57.48 488 3.26-89.6-24-40v-64h8a24 24 0 0 1 24 24v16a24 24 0 0 1 24 24v8l32-32.221v41.821l-4.74 24v88z" fill="#ebb18a" data-original="#fdc9a6" style="" class=""/><path d="m272 256a8 8 0 0 1 -5.657-13.657l8-8a8 8 0 0 1 11.314 11.314l-8 8a7.974 7.974 0 0 1 -5.657 2.343z" fill="#600c10" data-original="#961b20" style="" class=""/><path d="m304 224a8 8 0 0 1 -5.657-13.657l16-16a8 8 0 0 1 11.314 11.314l-16 16a7.974 7.974 0 0 1 -5.657 2.343z" fill="#600c10" data-original="#961b20" style="" class=""/><g fill="#fbb540"><path d="m138.641 48a8 8 0 0 1 -8-8v-16a8 8 0 0 1 16 0v16a8 8 0 0 1 -8 8z" fill="#e79814" data-original="#fbb540" style="" class=""/><path d="m117.849 60a7.967 7.967 0 0 1 -3.993-1.073l-13.856-8a8 8 0 0 1 8-13.856l13.856 8a8 8 0 0 1 -4.007 14.929z" fill="#e79814" data-original="#fbb540" style="" class=""/><path d="m104.008 92a8 8 0 0 1 -4.008-14.928l13.856-8a8 8 0 1 1 8 13.856l-13.856 8a7.969 7.969 0 0 1 -3.992 1.072z" fill="#e79814" data-original="#fbb540" style="" class=""/><path d="m138.641 112a8 8 0 0 1 -8-8v-16a8 8 0 0 1 16 0v16a8 8 0 0 1 -8 8z" fill="#e79814" data-original="#fbb540" style="" class=""/><path d="m173.274 92a7.966 7.966 0 0 1 -3.992-1.073l-13.856-8a8 8 0 0 1 8-13.856l13.856 8a8 8 0 0 1 -4.008 14.929z" fill="#e79814" data-original="#fbb540" style="" class=""/><path d="m159.434 60a8 8 0 0 1 -4.008-14.929l13.856-8a8 8 0 1 1 8 13.856l-13.856 8a7.969 7.969 0 0 1 -3.992 1.073z" fill="#e79814" data-original="#fbb540" style="" class=""/><path d="m433 224a8 8 0 0 1 -8-8v-8a8 8 0 0 1 16 0v8a8 8 0 0 1 -8 8z" fill="#e79814" data-original="#fbb540" style="" class=""/><path d="m405.29 208a8 8 0 0 1 -4.008-14.929l6.928-4a8 8 0 1 1 8 13.856l-6.928 4a7.969 7.969 0 0 1 -3.992 1.073z" fill="#e79814" data-original="#fbb540" style="" class=""/><path d="m412.2 180a7.966 7.966 0 0 1 -3.992-1.073l-6.928-4a8 8 0 0 1 8-13.856l6.928 4a8 8 0 0 1 -4.008 14.929z" fill="#e79814" data-original="#fbb540" style="" class=""/><path d="m433 168a8 8 0 0 1 -8-8v-8a8 8 0 0 1 16 0v8a8 8 0 0 1 -8 8z" fill="#e79814" data-original="#fbb540" style="" class=""/><path d="m453.787 180a8 8 0 0 1 -4.008-14.93l6.929-4a8 8 0 1 1 8 13.858l-6.929 4a7.972 7.972 0 0 1 -3.992 1.072z" fill="#e79814" data-original="#fbb540" style="" class=""/><path d="m460.7 208a7.975 7.975 0 0 1 -3.992-1.072l-6.929-4a8 8 0 0 1 8-13.858l6.929 4a8 8 0 0 1 -4.008 14.93z" fill="#e79814" data-original="#fbb540" style="" class=""/></g></g></g></svg>
