<?xml version="1.0"?>
<svg xmlns="http://www.w3.org/2000/svg" xmlns:xlink="http://www.w3.org/1999/xlink" xmlns:svgjs="http://svgjs.com/svgjs" version="1.1" width="512" height="512" x="0" y="0" viewBox="0 0 511 511" style="enable-background:new 0 0 512 512" xml:space="preserve" class=""><g><g xmlns="http://www.w3.org/2000/svg"><g><circle cx="220.103" cy="258.361" fill="#233b74" r="198.215" data-original="#61729b" style="" class=""/><path d="m496 444.957h-165.633c15.959-9.379 30.835-20.843 44.269-34.277 41.45-41.45 64.277-96.561 64.277-155.18s-22.828-113.729-64.277-155.179c-41.45-41.45-96.561-64.277-155.18-64.277s-113.729 22.827-155.18 64.277c-41.448 41.449-64.276 96.559-64.276 155.179s22.828 113.729 64.277 155.18c41.139 41.139 95.736 63.921 153.862 64.261.107.002.21.016.318.016h277.543c8.284 0 15-6.716 15-15s-6.716-15-15-15zm-466-189.457c0-104.467 84.99-189.456 189.457-189.456s189.457 84.989 189.457 189.456-84.99 189.457-189.457 189.457-189.457-84.991-189.457-189.457z" fill="#47568c" data-original="#47568c" style="" class=""/><path d="m418.318 258.361c0-109.471-78.744-198.215-188.215-198.215l-10 5.892v378.917l10 11.622c109.471-.001 188.215-88.745 188.215-198.216z" fill="#47568c" data-original="#47568c" style="" class=""/><path d="m496 444.957h-165.633c15.959-9.379 30.835-20.843 44.269-34.277 41.45-41.45 64.277-96.561 64.277-155.18s-22.828-113.729-64.277-155.179c-41.298-41.298-96.156-64.102-154.534-64.27v30c104.17.35 188.811 85.197 188.811 189.448s-84.641 189.098-188.811 189.449v30.008h275.898c8.284 0 15-6.716 15-15s-6.716-14.999-15-14.999z" fill="#29376d" data-original="#29376d" style="" class=""/></g><g><path d="m145.537 129.293c-29.141 0-52.849 23.708-52.849 52.849s23.708 52.848 52.849 52.848 52.848-23.707 52.848-52.848-23.708-52.849-52.848-52.849z" fill="#7ed8f6" data-original="#7ed8f6" style=""/><path d="m293.228 234.99c29.141 0 52.848-23.707 52.848-52.848s-23.708-52.849-52.848-52.849-52.849 23.708-52.849 52.849 23.708 52.848 52.849 52.848z" fill="#66c0ee" data-original="#66c0ee" style="" class=""/><path d="m145.537 276.01c-29.141 0-52.849 23.707-52.849 52.848s23.708 52.849 52.849 52.849 52.848-23.708 52.848-52.849-23.708-52.848-52.848-52.848z" fill="#7ed8f6" data-original="#7ed8f6" style=""/><path d="m293.228 276.01c-29.141 0-52.849 23.707-52.849 52.848s23.708 52.849 52.849 52.849 52.848-23.708 52.848-52.849-23.707-52.848-52.848-52.848z" fill="#66c0ee" data-original="#66c0ee" style="" class=""/></g></g></g></svg>
